<svg width="0" height="0" class="hidden">
  <symbol xmlns="http://www.w3.org/2000/svg" viewBox="0 0 64 64" id="umbrella" fill="currentColor">
    <path d="M36 62a5.006 5.006 0 0 1-5-5V33a1 1 0 0 1 2 0v24a3 3 0 0 0 6 0 1 1 0 0 1 2 0 5.006 5.006 0 0 1-5 5ZM32 7a1 1 0 0 1-1-1V3a1 1 0 0 1 2 0v3a1 1 0 0 1-1 1Z"></path>
    <path d="M60 35a1 1 0 0 1-1-1 6 6 0 0 0-12 0 1 1 0 0 1-2 0 6 6 0 0 0-12 0 1 1 0 0 1-2 0 6 6 0 0 0-12 0 1 1 0 0 1-2 0 6 6 0 0 0-12 0 1 1 0 0 1-2 0 29 29 0 0 1 58 0 1 1 0 0 1-1 1Zm-35-9a8.006 8.006 0 0 1 7 4.13 8 8 0 0 1 14 0 7.993 7.993 0 0 1 12.339-2.083 27 27 0 0 0-52.678 0A7.993 7.993 0 0 1 18 30.13 8.006 8.006 0 0 1 25 26Z"></path>
  </symbol>
</svg>